<?xml version="1.0" standalone="no"?>
<!DOCTYPE svg PUBLIC "-//W3C//DTD SVG 20010904//EN"
 "http://www.w3.org/TR/2001/REC-SVG-20010904/DTD/svg10.dtd">
<svg version="1.0" xmlns="http://www.w3.org/2000/svg"
 width="1920.000000pt" height="1080.000000pt" viewBox="0 0 1920.000000 1080.000000"
 preserveAspectRatio="xMidYMid meet">
<metadata>
Created by potrace 1.16, written by Peter Selinger 2001-2019
</metadata>
<g transform="translate(0.000000,1080.000000) scale(0.100000,-0.100000)"
fill="#000000" stroke="none">
<path d="M18060 8923 c-181 -27 -265 -45 -500 -104 -387 -99 -661 -174 -1027
-285 -175 -52 -397 -115 -493 -140 -96 -25 -258 -67 -360 -94 -446 -118 -679
-163 -1302 -255 -246 -36 -545 -83 -665 -105 -120 -21 -355 -62 -523 -90 -251
-42 -1004 -188 -1180 -229 -64 -15 -64 -15 -35 23 43 56 68 141 57 192 -12 57
-46 106 -96 138 -46 30 -60 31 -179 12 -122 -20 -202 -49 -299 -107 -46 -28
-121 -70 -168 -94 -47 -23 -134 -70 -195 -104 -60 -34 -134 -69 -164 -77 -81
-24 -183 -68 -271 -118 -44 -24 -121 -60 -172 -79 l-93 -35 -155 9 c-328 18
-535 51 -811 133 -791 233 -777 229 -904 299 -87 48 -163 80 -274 117 -47 15
-115 45 -151 65 -36 20 -128 68 -204 107 -76 38 -157 81 -180 96 -117 73 -246
117 -381 128 -71 6 -86 4 -128 -16 -52 -25 -86 -67 -107 -134 -43 -135 94
-315 435 -573 180 -136 376 -250 537 -312 86 -32 189 -98 133 -85 -16 4 -91
32 -165 62 -264 107 -415 151 -830 246 -784 178 -1455 302 -2404 446 -581 88
-733 120 -1391 291 -322 84 -525 142 -860 244 -378 115 -1079 304 -1260 339
-358 69 -568 24 -756 -163 -196 -196 -301 -452 -384 -944 -39 -231 -49 -350
-49 -562 -1 -219 14 -322 62 -445 47 -119 136 -229 232 -283 50 -29 372 -118
854 -238 653 -162 932 -208 1611 -269 187 -17 387 -35 445 -40 58 -6 237 -16
398 -22 262 -11 334 -10 665 7 524 28 864 26 1227 -8 157 -15 371 -34 475 -42
514 -42 685 -77 998 -203 80 -33 167 -73 194 -90 67 -43 273 -253 273 -278 0
-5 -17 -20 -37 -34 -185 -125 -468 -350 -708 -564 -66 -59 -172 -146 -235
-193 -304 -228 -467 -388 -511 -500 -30 -77 7 -169 103 -258 68 -63 110 -79
189 -72 78 7 161 52 339 185 159 118 229 167 426 295 124 80 423 301 579 427
39 31 100 75 136 98 l67 41 75 -82 74 -83 -68 -84 c-38 -47 -81 -100 -96 -119
-76 -95 11 -311 148 -371 82 -35 269 -47 353 -23 13 4 6 -11 -25 -53 -58 -79
-71 -120 -59 -185 29 -153 130 -266 252 -285 23 -4 61 -17 83 -30 55 -31 128
-47 170 -35 38 10 29 37 76 -219 16 -91 45 -232 64 -315 55 -249 122 -580 154
-765 45 -261 75 -343 144 -394 24 -17 42 -21 110 -21 93 1 167 27 187 67 7 12
14 25 16 26 1 2 15 -6 31 -17 41 -30 146 -54 202 -46 128 19 155 76 220 470
40 242 83 447 150 724 17 68 44 217 61 330 88 588 145 695 590 1094 80 72 206
190 280 264 l135 133 60 -37 c78 -48 104 -68 336 -253 214 -172 309 -243 504
-373 72 -48 197 -139 279 -202 207 -157 300 -199 392 -173 82 22 188 123 214
204 43 130 -94 302 -481 602 -58 45 -173 143 -255 218 -203 186 -342 301 -519
434 -82 61 -154 116 -159 120 -25 24 249 304 350 357 63 34 275 118 431 171
183 64 372 99 678 126 94 9 321 30 505 47 435 40 785 48 1085 24 289 -23 783
-30 1030 -16 217 13 893 72 1095 97 460 55 937 159 1633 354 337 95 384 117
497 231 115 116 187 270 226 484 25 137 25 485 0 670 -64 474 -152 722 -328
927 -154 179 -337 259 -583 257 -66 -1 -131 -3 -145 -6z m345 -50 c280 -64
497 -326 605 -728 14 -55 58 -329 66 -415 5 -55 4 -70 -7 -74 -8 -2 -158 -32
-334 -66 -590 -114 -955 -218 -1555 -443 -284 -106 -601 -198 -820 -236 -397
-71 -926 -117 -1603 -141 -521 -18 -778 -41 -1217 -110 -102 -16 -275 -40
-385 -54 -195 -24 -285 -34 -719 -76 -209 -20 -364 -46 -454 -76 -141 -47
-298 -151 -436 -289 -77 -78 -107 -125 -151 -244 -18 -48 -40 -102 -49 -119
-27 -53 -107 -124 -262 -234 -220 -156 -277 -208 -383 -348 -120 -161 -314
-392 -379 -452 -70 -66 -160 -122 -347 -217 -149 -76 -174 -85 -374 -137 -118
-31 -225 -63 -237 -71 -27 -17 -49 -62 -64 -127 -24 -108 -53 -149 -185 -261
-147 -125 -204 -186 -251 -270 -19 -35 -40 -67 -47 -73 -13 -11 -151 -42 -212
-49 -47 -5 -94 20 -121 64 -39 62 -55 73 -106 73 -50 0 -54 4 -50 54 3 29 43
79 54 68 7 -7 24 -4 52 7 22 10 55 21 71 25 l30 8 -22 -24 c-23 -25 -31 -52
-13 -46 11 4 281 296 351 381 62 73 96 132 104 180 7 35 9 37 46 37 22 0 56 7
77 16 20 8 63 24 94 35 61 20 130 63 164 101 78 88 204 295 204 336 0 14 -9
26 -24 33 -27 13 -57 4 -191 -55 -111 -49 -195 -60 -395 -52 -191 8 -226 15
-265 56 l-28 30 12 69 c14 79 9 118 -24 176 -13 22 -29 59 -36 83 -8 27 -23
51 -42 64 -26 19 -38 20 -121 15 -51 -4 -104 -10 -117 -16 -14 -5 -49 -33 -79
-63 -37 -35 -104 -81 -200 -135 -210 -118 -302 -189 -358 -277 -33 -54 -45
-62 -122 -86 -65 -20 -103 -46 -191 -131 -26 -24 -84 -71 -130 -103 -46 -33
-120 -86 -163 -118 -55 -40 -89 -58 -109 -58 -23 0 -40 -11 -73 -46 -39 -43
-46 -46 -78 -41 -40 6 -48 -1 -70 -62 -10 -29 -30 -58 -59 -83 -25 -20 -66
-71 -92 -113 -50 -81 -89 -106 -109 -71 -74 123 -117 158 -204 164 -47 3 -66
-1 -105 -22 -59 -32 -54 -18 27 71 64 70 216 198 386 325 63 47 180 144 260
214 265 235 378 325 710 564 436 315 743 560 983 785 205 191 265 263 322 380
46 94 66 193 58 280 -3 22 4 80 15 129 37 171 26 184 -334 421 -313 206 -327
213 -475 251 -244 62 -469 192 -822 477 -54 44 -115 95 -134 115 -33 33 -35
38 -31 89 6 71 25 91 24 25 -1 -27 5 -61 13 -75 17 -32 78 -63 154 -79 107
-23 231 20 278 95 34 55 11 96 -76 137 -22 10 -35 19 -28 19 23 2 118 -41 188
-83 134 -82 501 -263 589 -291 50 -16 145 -57 213 -92 67 -35 145 -72 172 -83
42 -16 474 -146 836 -252 219 -63 419 -92 780 -113 266 -16 289 -18 460 -42
66 -9 147 -13 205 -11 100 5 102 6 404 112 162 58 407 125 621 171 348 76 948
192 1230 240 176 29 410 70 520 90 229 41 383 65 633 100 267 37 631 93 682
105 25 6 117 26 205 45 277 61 1040 261 1291 339 417 129 1178 333 1387 371
199 37 357 39 492 8z m-17140 -67 c189 -35 931 -236 1405 -383 151 -47 394
-116 540 -154 777 -204 1017 -258 1425 -319 497 -74 611 -92 770 -120 94 -16
305 -53 470 -81 603 -102 1573 -313 1855 -404 63 -20 183 -64 265 -97 146 -59
269 -98 308 -98 20 0 254 -135 382 -221 137 -91 185 -162 200 -295 13 -111
-37 -253 -129 -373 -45 -57 -242 -253 -376 -373 -107 -95 -647 -518 -662 -518
-15 0 11 75 55 158 49 94 50 100 49 173 -3 109 -26 227 -56 287 -29 58 -184
228 -256 280 -154 114 -273 141 -851 197 -451 43 -645 66 -889 106 -460 74
-740 100 -1280 119 -612 22 -1009 55 -1434 121 -279 43 -604 132 -976 269
-597 219 -1020 334 -1670 455 -107 20 -203 38 -212 41 -24 7 -23 29 12 234 72
414 176 657 361 842 87 86 180 139 289 163 81 18 277 14 405 -9z m10333 -906
c-40 -22 -68 -55 -68 -81 0 -26 48 -77 94 -101 62 -32 165 -36 241 -9 84 30
110 58 110 121 0 60 15 50 23 -16 l5 -47 -95 -91 c-52 -50 -106 -97 -119 -103
-13 -7 -109 -37 -214 -67 -104 -30 -255 -79 -335 -109 -80 -29 -167 -59 -195
-66 -66 -17 -228 -15 -345 3 -52 8 -124 18 -159 21 l-63 7 63 28 c35 15 116
54 179 86 63 33 149 70 190 83 41 12 136 56 210 96 74 40 168 89 208 109 39
20 97 52 128 72 60 38 152 84 169 83 6 0 -7 -9 -27 -19z m166 -2878 c139 -105
307 -247 476 -402 80 -73 195 -171 255 -218 199 -154 357 -298 407 -369 33
-49 30 -53 -15 -19 -49 38 -116 52 -167 37 -46 -14 -114 -70 -136 -112 -34
-66 -6 -149 78 -231 27 -26 43 -48 36 -48 -24 0 -75 38 -109 81 -19 24 -56 66
-84 94 -27 28 -72 78 -99 110 -28 33 -70 81 -94 106 -26 27 -48 64 -56 90 -13
43 -14 44 -60 49 -42 4 -51 10 -75 45 -20 30 -36 42 -66 49 -44 10 -264 169
-374 271 -37 34 -104 82 -151 108 -77 44 -180 135 -180 160 0 5 29 57 64 116
35 58 80 136 100 173 l37 68 57 -42 c31 -23 102 -75 156 -116z m-869 -14 c-12
-75 -54 -135 -175 -251 -134 -129 -294 -261 -334 -277 -28 -10 -50 -5 -41 10
3 5 10 32 15 60 26 136 226 373 385 457 53 28 93 43 118 43 l39 0 -7 -42z
m-2444 -111 c57 -38 51 -54 -58 -156 -149 -138 -126 -135 -222 -30 -46 50 -82
91 -80 93 17 13 169 91 198 101 58 22 123 18 162 -8z m146 -119 c63 -61 82
-152 44 -213 -24 -40 -439 -453 -462 -460 -19 -6 -80 21 -146 66 -27 19 -44
39 -48 59 -8 35 -19 37 -60 10 -36 -24 -45 -25 -45 -5 0 20 22 65 32 65 24 0
147 100 355 289 127 115 234 215 238 221 11 18 56 2 92 -32z m309 -481 c-14
-29 -53 -82 -87 -120 l-61 -67 -29 42 -29 43 68 63 c37 34 87 76 112 93 56 38
64 22 26 -54z m1383 64 c11 -7 10 -17 -4 -62 -28 -85 -60 -141 -107 -185 -55
-53 -86 -62 -94 -28 -10 39 5 125 27 161 20 32 134 122 154 123 6 0 16 -4 24
-9z m-1708 -408 c10 -19 9 -26 -6 -43 -10 -11 -26 -20 -36 -20 -10 0 -49 -11
-86 -25 -37 -13 -68 -23 -69 -22 -1 1 27 46 64 100 l67 98 27 -33 c15 -18 32
-43 39 -55z m1050 -149 c36 -34 65 -102 80 -188 24 -139 -10 -689 -60 -956
-17 -91 -44 -248 -61 -349 -31 -178 -45 -239 -55 -229 -3 3 -16 77 -30 164
-13 87 -38 239 -54 336 -17 97 -33 235 -37 305 -3 70 -16 220 -29 333 -13 113
-29 261 -35 330 -5 69 -12 139 -15 156 -5 29 -1 34 46 65 112 72 198 83 250
33z m399 -64 c47 -24 116 -95 140 -145 26 -54 25 -112 -5 -265 -14 -69 -25
-147 -25 -175 0 -77 -8 -93 -49 -106 -51 -16 -60 -27 -36 -45 45 -32 55 -45
55 -67 0 -35 -28 -55 -103 -73 -37 -9 -67 -20 -67 -23 0 -4 16 -13 36 -20 56
-20 60 -41 35 -185 -11 -69 -21 -145 -21 -170 0 -53 -8 -76 -25 -76 -7 0 -18
-6 -25 -14 -9 -12 -7 -17 9 -28 25 -15 27 -50 6 -72 -15 -15 -25 -18 -80 -31
-29 -6 -29 -7 -11 -21 11 -8 30 -14 41 -14 12 0 30 -9 40 -20 17 -18 17 -25 1
-127 -21 -136 -37 -213 -46 -213 -4 0 -17 12 -31 26 -37 40 -75 55 -140 55
-71 1 -115 -21 -144 -72 -11 -20 -26 -34 -33 -32 -6 3 -16 -5 -20 -17 -7 -20
-9 -18 -20 18 -29 96 -160 129 -244 62 -36 -28 -50 -70 -46 -134 1 -31 2 -56
1 -56 -1 0 -9 13 -18 29 -24 48 -53 167 -84 347 -35 205 -146 749 -160 787 -8
21 -47 224 -88 462 -4 28 3 38 79 112 121 118 333 292 343 282 2 -3 9 -63 15
-134 6 -72 22 -220 35 -330 14 -111 29 -277 34 -370 6 -94 22 -233 36 -310 14
-77 37 -214 50 -305 29 -188 56 -295 75 -295 15 0 62 176 86 320 8 55 35 208
59 340 28 151 46 286 50 365 3 69 11 166 16 215 12 107 14 308 4 386 l-7 55
62 40 c127 81 142 84 220 44z"/>
</g>
</svg>
