{
    "asset" : {
        "copyright" : "BARULIN",
        "generator" : "Khronos glTF Blender I/O v1.3.48",
        "version" : "2.0"
    },
    "scene" : 0,
    "scenes" : [
        {
            "name" : "Scene",
            "nodes" : [
                0,
                1,
                2,
                3
            ]
        }
    ],
    "nodes" : [
        {
            "name" : "Light",
            "rotation" : [
                0.16907575726509094,
                0.7558803558349609,
                -0.27217137813568115,
                0.570947527885437
            ],
            "translation" : [
                4.076245307922363,
                4.541736602783203,
                -1.0054539442062378
            ]
        },
        {
            "name" : "Camera",
            "rotation" : [
                0.7522193789482117,
                0.15738949179649353,
                -0.19418658316135406,
                0.6096606850624084
            ],
            "translation" : [
                2.184791088104248,
                -0.7249448895454407,
                2.8737566471099854
            ]
        },
        {
            "mesh" : 0,
            "name" : "Plane_1",
            "rotation" : [
                -1,
                0,
                0,
                7.549790126404332e-08
            ],
            "scale" : [
                0.009999999776482582,
                0.009999999776482582,
                0.009999999776482582
            ]
        },
        {
            "name" : "Light.001",
            "rotation" : [
                0.16907575726509094,
                0.7558803558349609,
                -0.27217137813568115,
                0.570947527885437
            ],
            "translation" : [
                -1.8383121490478516,
                -2.1372199058532715,
                2.208353042602539
            ]
        }
    ],
    "materials" : [
        {
            "doubleSided" : true,
            "emissiveFactor" : [
                0,
                0,
                0
            ],
            "name" : "\u041c\u0430\u0442\u0435\u0440\u0438\u0430\u043b",
            "pbrMetallicRoughness" : {
                "baseColorFactor" : [
                    0.800000011920929,
                    0.800000011920929,
                    0.800000011920929,
                    1
                ],
                "metallicFactor" : 0,
                "roughnessFactor" : 0.5
            }
        },
        {
            "doubleSided" : true,
            "emissiveFactor" : [
                0,
                0,
                0
            ],
            "name" : "\u041c\u0430\u0442\u0435\u0440\u0438\u0430\u043b.001",
            "pbrMetallicRoughness" : {
                "baseColorFactor" : [
                    0.8000000715255737,
                    0,
                    0.0035954713821411133,
                    1
                ],
                "metallicFactor" : 0,
                "roughnessFactor" : 0.5
            }
        }
    ],
    "meshes" : [
        {
            "name" : "\u041c\u0435\u0448",
            "primitives" : [
                {
                    "attributes" : {
                        "POSITION" : 0,
                        "NORMAL" : 1,
                        "TEXCOORD_0" : 2
                    },
                    "indices" : 3,
                    "material" : 0
                },
                {
                    "attributes" : {
                        "POSITION" : 4,
                        "NORMAL" : 5,
                        "TEXCOORD_0" : 6
                    },
                    "indices" : 7,
                    "material" : 1
                }
            ]
        }
    ],
    "accessors" : [
        {
            "bufferView" : 0,
            "componentType" : 5126,
            "count" : 1530,
            "max" : [
                83.19200897216797,
                106.36286163330078,
                221.62493896484375
            ],
            "min" : [
                -83.19200897216797,
                -151.67025756835938,
                -12.715063095092773
            ],
            "type" : "VEC3"
        },
        {
            "bufferView" : 1,
            "componentType" : 5126,
            "count" : 1530,
            "type" : "VEC3"
        },
        {
            "bufferView" : 2,
            "componentType" : 5126,
            "count" : 1530,
            "type" : "VEC2"
        },
        {
            "bufferView" : 3,
            "componentType" : 5123,
            "count" : 1986,
            "type" : "SCALAR"
        },
        {
            "bufferView" : 4,
            "componentType" : 5126,
            "count" : 160,
            "max" : [
                82.33350372314453,
                103.15447235107422,
                198.8158721923828
            ],
            "min" : [
                -82.33350372314453,
                -143.1148681640625,
                0.35199594497680664
            ],
            "type" : "VEC3"
        },
        {
            "bufferView" : 5,
            "componentType" : 5126,
            "count" : 160,
            "type" : "VEC3"
        },
        {
            "bufferView" : 6,
            "componentType" : 5126,
            "count" : 160,
            "type" : "VEC2"
        },
        {
            "bufferView" : 7,
            "componentType" : 5123,
            "count" : 192,
            "type" : "SCALAR"
        }
    ],
    "bufferViews" : [
        {
            "buffer" : 0,
            "byteLength" : 18360,
            "byteOffset" : 0
        },
        {
            "buffer" : 0,
            "byteLength" : 18360,
            "byteOffset" : 18360
        },
        {
            "buffer" : 0,
            "byteLength" : 12240,
            "byteOffset" : 36720
        },
        {
            "buffer" : 0,
            "byteLength" : 3972,
            "byteOffset" : 48960
        },
        {
            "buffer" : 0,
            "byteLength" : 1920,
            "byteOffset" : 52932
        },
        {
            "buffer" : 0,
            "byteLength" : 1920,
            "byteOffset" : 54852
        },
        {
            "buffer" : 0,
            "byteLength" : 1280,
            "byteOffset" : 56772
        },
        {
            "buffer" : 0,
            "byteLength" : 384,
            "byteOffset" : 58052
        }
    ],
    "buffers" : [
        {
            "byteLength" : 58436,
            "uri" : "data:application/octet-stream;base64,"
        }
    ]
}
