{
	"asset":{
		"version":"2.0",
		"generator":"Created using the official Cinema 4D glTF Exporter 1.000x290161"
	},
	"scenes":[{
		"nodes":[0]
	}],
	"nodes":[{
		"name":"Plane (Copy)",
		"translation":[0.0,
		0.0,
		0.0],
		"rotation":[-0.7071067690849304,
		0.0,
		0.0,
		-0.7071067690849304],
		"scale":[1.0,
		1.0,
		1.0],
		"mesh":0
	}],
	"meshes":[{
		"primitives":[{
			"targets":[{
				"POSITION":4
			},
			{
				"POSITION":5
			},
			{
				"POSITION":6
			},
			{
				"POSITION":7
			},
			{
				"POSITION":8
			},
			{
				"POSITION":9
			},
			{
				"POSITION":10
			},
			{
				"POSITION":11
			},
			{
				"POSITION":12
			},
			{
				"POSITION":13
			},
			{
				"POSITION":14
			},
			{
				"POSITION":15
			},
			{
				"POSITION":16
			},
			{
				"POSITION":17
			},
			{
				"POSITION":18
			},
			{
				"POSITION":19
			},
			{
				"POSITION":20
			},
			{
				"POSITION":21
			},
			{
				"POSITION":22
			},
			{
				"POSITION":23
			},
			{
				"POSITION":24
			},
			{
				"POSITION":25
			},
			{
				"POSITION":26
			},
			{
				"POSITION":27
			},
			{
				"POSITION":28
			},
			{
				"POSITION":29
			},
			{
				"POSITION":30
			},
			{
				"POSITION":31
			},
			{
				"POSITION":32
			},
			{
				"POSITION":33
			},
			{
				"POSITION":34
			},
			{
				"POSITION":35
			},
			{
				"POSITION":36
			},
			{
				"POSITION":37
			},
			{
				"POSITION":38
			},
			{
				"POSITION":39
			},
			{
				"POSITION":40
			},
			{
				"POSITION":41
			},
			{
				"POSITION":42
			},
			{
				"POSITION":43
			},
			{
				"POSITION":44
			},
			{
				"POSITION":45
			},
			{
				"POSITION":46
			},
			{
				"POSITION":47
			},
			{
				"POSITION":48
			},
			{
				"POSITION":49
			},
			{
				"POSITION":50
			},
			{
				"POSITION":51
			},
			{
				"POSITION":52
			},
			{
				"POSITION":53
			},
			{
				"POSITION":54
			},
			{
				"POSITION":55
			}],
			"attributes":{
				"POSITION":1,
				"NORMAL":2,
				"TEXCOORD_0":3
			},
			"indices":0,
			"material":0
		}],
		"weights":[0.0,
		0.0,
		0.0,
		0.0,
		0.0,
		0.0,
		0.0,
		0.0,
		0.0,
		0.0,
		0.0,
		0.0,
		0.0,
		0.0,
		0.0,
		0.0,
		0.0,
		0.0,
		0.0,
		0.0,
		0.0,
		0.0,
		0.0,
		0.0,
		0.0,
		0.0,
		0.0,
		0.0,
		0.0,
		0.0,
		0.0,
		0.0,
		0.0,
		0.0,
		0.0,
		0.0,
		0.0,
		0.0,
		0.0,
		0.0,
		0.0,
		0.0,
		0.0,
		0.0,
		0.0,
		0.0,
		0.0,
		0.0,
		0.0,
		0.0,
		0.0,
		0.0]
	}],
	"accessors":[{
		"bufferView":0,
		"type":"SCALAR",
		"componentType":5123,
		"count":2178,
		"byteOffset":0,
		"min":[0],
		"max":[372]
	},
	{
		"bufferView":1,
		"type":"VEC3",
		"componentType":5126,
		"count":373,
		"byteOffset":0,
		"min":[-0.8319200873374939,
		-2.216249465942383,
		-1.5167025327682496],
		"max":[0.8319200873374939,
		0.12715062499046327,
		1.070495367050171]
	},
	{
		"bufferView":1,
		"type":"VEC3",
		"componentType":5126,
		"count":373,
		"byteOffset":12,
		"min":[-0.9939135313034058,
		-0.9999974370002747,
		-0.9703387022018433],
		"max":[0.9939135313034058,
		0.9996373653411865,
		0.9987939596176148]
	},
	{
		"bufferView":1,
		"type":"VEC2",
		"componentType":5126,
		"count":373,
		"byteOffset":24,
		"min":[0.0025800392031669618,
		0.0025800466537475588],
		"max":[0.9974199533462524,
		0.6518148183822632]
	},
	{
		"bufferView":2,
		"type":"VEC3",
		"componentType":5126,
		"count":373,
		"byteOffset":0,
		"min":[0.0,
		0.0,
		0.0],
		"max":[0.0,
		0.0,
		0.0]
	},
	{
		"bufferView":3,
		"type":"VEC3",
		"componentType":5126,
		"count":373,
		"byteOffset":0,
		"min":[-1.0476103905231493e-18,
		-0.007209262810647488,
		-0.0010528182610869408],
		"max":[2.5031516726680896e-19,
		0.0,
		0.0062251281924545769]
	},
	{
		"bufferView":4,
		"type":"VEC3",
		"componentType":5126,
		"count":373,
		"byteOffset":0,
		"min":[-4.161168053804652e-18,
		-0.02883058600127697,
		-0.004168510437011719],
		"max":[9.84049005073962e-19,
		0.0,
		0.024766158312559129]
	},
	{
		"bufferView":5,
		"type":"VEC3",
		"componentType":5126,
		"count":373,
		"byteOffset":0,
		"min":[-9.24160342903541e-18,
		-0.06475856900215149,
		-0.009209900163114071],
		"max":[2.1471267780743075e-18,
		0.0,
		0.055154573172330859]
	},
	{
		"bufferView":6,
		"type":"VEC3",
		"componentType":5126,
		"count":373,
		"byteOffset":0,
		"min":[-1.61067715521264e-17,
		-0.11463312059640885,
		-0.015935439616441728],
		"max":[3.651186390747334e-18,
		0.0,
		0.09648731350898743]
	},
	{
		"bufferView":7,
		"type":"VEC3",
		"componentType":5126,
		"count":373,
		"byteOffset":0,
		"min":[-2.4481556700835854e-17,
		-0.17765618860721589,
		-0.0239979550242424],
		"max":[5.378455728634119e-18,
		0.0,
		0.14734035730361939]
	},
	{
		"bufferView":8,
		"type":"VEC3",
		"componentType":5126,
		"count":373,
		"byteOffset":0,
		"min":[-1.0505661632777912e-16,
		-0.2524450421333313,
		-0.03309448063373566],
		"max":[0.0,
		0.0,
		0.2057555764913559]
	},
	{
		"bufferView":9,
		"type":"VEC3",
		"componentType":5126,
		"count":373,
		"byteOffset":0,
		"min":[-4.4239243742058977e-17,
		-0.33696505427360537,
		-0.044189680367708209],
		"max":[8.959982344866219e-18,
		0.0,
		0.26932787895202639]
	},
	{
		"bufferView":10,
		"type":"VEC3",
		"componentType":5126,
		"count":373,
		"byteOffset":0,
		"min":[-5.473404813298876e-17,
		-0.4285788834095001,
		-0.05615051090717316],
		"max":[1.0556469878415001e-17,
		0.0,
		0.33539319038391116]
	},
	{
		"bufferView":11,
		"type":"VEC3",
		"componentType":5126,
		"count":373,
		"byteOffset":0,
		"min":[-6.504575774969116e-17,
		-0.5267506837844849,
		-0.0685245543718338],
		"max":[1.251521702532832e-17,
		0.0,
		0.40128567814826968]
	},
	{
		"bufferView":12,
		"type":"VEC3",
		"componentType":5126,
		"count":373,
		"byteOffset":0,
		"min":[-7.479476948289823e-17,
		-0.6266673803329468,
		-0.08084579557180405],
		"max":[1.4706660831900769e-17,
		0.0,
		0.46459507942199709]
	},
	{
		"bufferView":13,
		"type":"VEC3",
		"componentType":5126,
		"count":373,
		"byteOffset":0,
		"min":[-8.369417408278474e-17,
		-0.72487872838974,
		-0.09268566220998764],
		"max":[1.6803100463579664e-17,
		0.0,
		0.5233820080757141]
	},
	{
		"bufferView":14,
		"type":"VEC3",
		"componentType":5126,
		"count":373,
		"byteOffset":0,
		"min":[-2.050524490237302e-17,
		-0.818343997001648,
		-0.10368743538856507],
		"max":[8.97990449361119e-17,
		0.0,
		0.5762684345245361]
	},
	{
		"bufferView":15,
		"type":"VEC3",
		"componentType":5126,
		"count":373,
		"byteOffset":0,
		"min":[-9.830393070592492e-17,
		-0.9044972062110901,
		-0.11358585208654404],
		"max":[2.04877616129461e-17,
		0.0,
		0.6224424839019775]
	},
	{
		"bufferView":16,
		"type":"VEC3",
		"componentType":5126,
		"count":373,
		"byteOffset":0,
		"min":[-1.03919289307633e-16,
		-0.981337308883667,
		-0.12220844626426697],
		"max":[2.2003882759721069e-17,
		0.0,
		0.6615793108940125]
	},
	{
		"bufferView":17,
		"type":"VEC3",
		"componentType":5126,
		"count":373,
		"byteOffset":0,
		"min":[-3.7398470002412789e-17,
		-1.0474345684051514,
		-0.1294638067483902],
		"max":[9.433290790029876e-17,
		0.0,
		0.6937195062637329]
	},
	{
		"bufferView":18,
		"type":"VEC3",
		"componentType":5126,
		"count":373,
		"byteOffset":0,
		"min":[-4.0928225038466419e-17,
		-1.101871371269226,
		-0.13532306253910066],
		"max":[9.536208601843723e-17,
		0.0,
		0.7191384434700012]
	},
	{
		"bufferView":19,
		"type":"VEC3",
		"componentType":5126,
		"count":373,
		"byteOffset":0,
		"min":[-4.354372712196724e-17,
		-1.144160509109497,
		-0.1398002952337265],
		"max":[9.614840390873014e-17,
		0.0,
		0.7382323145866394]
	},
	{
		"bufferView":20,
		"type":"VEC3",
		"componentType":5126,
		"count":373,
		"byteOffset":0,
		"min":[-4.5331982418466028e-17,
		-1.1741507053375245,
		-0.14293506741523744],
		"max":[9.669904149889444e-17,
		0.0,
		0.7514277100563049]
	},
	{
		"bufferView":21,
		"type":"VEC3",
		"componentType":5126,
		"count":373,
		"byteOffset":0,
		"min":[-4.6366312217459486e-17,
		-1.191935658454895,
		-0.1447780281305313],
		"max":[9.70229455744355e-17,
		0.0,
		0.7591177225112915]
	},
	{
		"bufferView":22,
		"type":"VEC3",
		"componentType":5126,
		"count":373,
		"byteOffset":0,
		"min":[-4.670214423743356e-17,
		-1.19778311252594,
		-0.14538131654262544],
		"max":[9.71289305719607e-17,
		0.0,
		0.7616239786148071]
	},
	{
		"bufferView":23,
		"type":"VEC3",
		"componentType":5126,
		"count":373,
		"byteOffset":0,
		"min":[-4.670214423743356e-17,
		-1.19778311252594,
		-0.14538131654262544],
		"max":[9.71289305719607e-17,
		0.0,
		0.7616239786148071]
	},
	{
		"bufferView":24,
		"type":"VEC3",
		"componentType":5126,
		"count":373,
		"byteOffset":0,
		"min":[-4.6503465380465678e-17,
		-1.1943209171295167,
		-0.1450241506099701],
		"max":[9.706618395941488e-17,
		0.0,
		0.7601406574249268]
	},
	{
		"bufferView":25,
		"type":"VEC3",
		"componentType":5126,
		"count":373,
		"byteOffset":0,
		"min":[-4.590810048021941e-17,
		-1.1840221881866456,
		-0.14395900070667268],
		"max":[9.687902276529618e-17,
		0.0,
		0.7557060122489929]
	},
	{
		"bufferView":26,
		"type":"VEC3",
		"componentType":5126,
		"count":373,
		"byteOffset":0,
		"min":[-4.491293933759156e-17,
		-1.1670513153076172,
		-0.1421949714422226],
		"max":[9.656907488105011e-17,
		0.0,
		0.7483243942260742]
	},
	{
		"bufferView":27,
		"type":"VEC3",
		"componentType":5126,
		"count":373,
		"byteOffset":0,
		"min":[-4.3509845804077068e-17,
		-1.1436208486557007,
		-0.13974162936210633],
		"max":[9.613810716446508e-17,
		0.0,
		0.7379823923110962]
	},
	{
		"bufferView":28,
		"type":"VEC3",
		"componentType":5126,
		"count":373,
		"byteOffset":0,
		"min":[-4.1687437874447189e-17,
		-1.1139980554580689,
		-0.13661059737205506],
		"max":[9.558814455368062e-17,
		0.0,
		0.7246565818786621]
	},
	{
		"bufferView":29,
		"type":"VEC3",
		"componentType":5126,
		"count":373,
		"byteOffset":0,
		"min":[-3.9432434336786779e-17,
		-1.0785040855407715,
		-0.13281658291816712],
		"max":[9.49217678522079e-17,
		0.0,
		0.708320677280426]
	},
	{
		"bufferView":30,
		"type":"VEC3",
		"componentType":5126,
		"count":373,
		"byteOffset":0,
		"min":[-1.077862329398653e-16,
		-1.0375245809555054,
		-0.1283797025680542],
		"max":[2.3088084932206573e-17,
		0.0,
		0.6889587044715881]
	},
	{
		"bufferView":31,
		"type":"VEC3",
		"componentType":5126,
		"count":373,
		"byteOffset":0,
		"min":[-1.046288977766402e-16,
		-0.9915063381195068,
		-0.12332656979560852],
		"max":[2.2200258745863607e-17,
		0.0,
		0.6665737628936768]
	},
	{
		"bufferView":32,
		"type":"VEC3",
		"componentType":5126,
		"count":373,
		"byteOffset":0,
		"min":[-1.0100765987356065e-16,
		-0.9409603476524353,
		-0.11769214272499085],
		"max":[2.120970499924768e-17,
		0.0,
		0.6411991715431213]
	},
	{
		"bufferView":33,
		"type":"VEC3",
		"componentType":5126,
		"count":373,
		"byteOffset":0,
		"min":[-2.5868114893905416e-17,
		-0.8864670991897583,
		-0.11152160912752152],
		"max":[9.117855720472374e-17,
		0.0,
		0.6129133105278015]
	},
	{
		"bufferView":34,
		"type":"VEC3",
		"componentType":5126,
		"count":373,
		"byteOffset":0,
		"min":[-2.1326392059538087e-17,
		-0.8286635279655457,
		-0.10487037897109986],
		"max":[9.000720990034455e-17,
		0.0,
		0.5818449258804321]
	},
	{
		"bufferView":35,
		"type":"VEC3",
		"componentType":5126,
		"count":373,
		"byteOffset":0,
		"min":[-8.740037997838574e-17,
		-0.7682393193244934,
		-0.0978047177195549],
		"max":[1.770678370226527e-17,
		0.0,
		0.5481818914413452]
	},
	{
		"bufferView":36,
		"type":"VEC3",
		"componentType":5126,
		"count":373,
		"byteOffset":0,
		"min":[-8.201135784460686e-17,
		-0.705937385559082,
		-0.090402752161026],
		"max":[1.639896483170463e-17,
		0.0,
		0.5121832489967346]
	},
	{
		"bufferView":37,
		"type":"VEC3",
		"componentType":5126,
		"count":373,
		"byteOffset":0,
		"min":[-7.625492193506664e-17,
		-0.6425168514251709,
		-0.08275070041418076],
		"max":[1.5043983431338669e-17,
		0.0,
		0.47416773438453677]
	},
	{
		"bufferView":38,
		"type":"VEC3",
		"componentType":5126,
		"count":373,
		"byteOffset":0,
		"min":[-7.018609630411209e-17,
		-0.5787694454193115,
		-0.07494483888149262],
		"max":[1.3657966214389715e-17,
		0.0,
		0.43453076481819155]
	},
	{
		"bufferView":39,
		"type":"VEC3",
		"componentType":5126,
		"count":373,
		"byteOffset":0,
		"min":[-6.387116127986586e-17,
		-0.5154748558998108,
		-0.06708602607250214],
		"max":[1.2257989497423317e-17,
		0.0,
		0.39372310042381289]
	},
	{
		"bufferView":40,
		"type":"VEC3",
		"componentType":5126,
		"count":373,
		"byteOffset":0,
		"min":[-5.738777257823443e-17,
		-0.4533935487270355,
		-0.05927826091647148],
		"max":[1.0923472545411916e-17,
		0.0,
		0.352248877286911]
	},
	{
		"bufferView":41,
		"type":"VEC3",
		"componentType":5126,
		"count":373,
		"byteOffset":0,
		"min":[-5.082319775384215e-17,
		-0.3941483199596405,
		-0.05162627995014191],
		"max":[9.988076856402251e-18,
		0.0,
		0.31065869331359866]
	},
	{
		"bufferView":42,
		"type":"VEC3",
		"componentType":5126,
		"count":373,
		"byteOffset":0,
		"min":[-4.427190414136502e-17,
		-0.3376079499721527,
		-0.04423103481531143],
		"max":[8.965268028980432e-18,
		0.0,
		0.2695271670818329]
	},
	{
		"bufferView":43,
		"type":"VEC3",
		"componentType":5126,
		"count":373,
		"byteOffset":0,
		"min":[-3.783296481712974e-17,
		-0.28394097089767458,
		-0.03718757629394531],
		"max":[7.87767772470591e-18,
		0.0,
		0.22944271564483643]
	},
	{
		"bufferView":44,
		"type":"VEC3",
		"componentType":5126,
		"count":373,
		"byteOffset":0,
		"min":[-1.0266147846818487e-16,
		-0.23371721804141999,
		-0.030733566731214525],
		"max":[0.0,
		0.0,
		0.1909925490617752]
	},
	{
		"bufferView":45,
		"type":"VEC3",
		"componentType":5126,
		"count":373,
		"byteOffset":0,
		"min":[-2.569518451504508e-17,
		-0.18743890523910523,
		-0.025158995762467386],
		"max":[5.618742184003729e-18,
		0.0,
		0.15474461019039155]
	},
	{
		"bufferView":46,
		"type":"VEC3",
		"componentType":5126,
		"count":373,
		"byteOffset":0,
		"min":[-2.0193943750644815e-17,
		-0.14554284512996674,
		-0.01989654451608658],
		"max":[4.5090611942903668e-18,
		0.0,
		0.12123836576938629]
	},
	{
		"bufferView":47,
		"type":"VEC3",
		"componentType":5126,
		"count":373,
		"byteOffset":0,
		"min":[-1.5195228443260314e-17,
		-0.10840127617120743,
		-0.0150548554956913],
		"max":[3.4558944247975455e-18,
		0.0,
		0.09097404778003693]
	},
	{
		"bufferView":48,
		"type":"VEC3",
		"componentType":5126,
		"count":373,
		"byteOffset":0,
		"min":[-1.0784965287742974e-17,
		-0.07633405923843384,
		-0.010737495496869088],
		"max":[2.492038759632381e-18,
		0.0,
		0.06441238522529602]
	},
	{
		"bufferView":49,
		"type":"VEC3",
		"componentType":5126,
		"count":373,
		"byteOffset":0,
		"min":[-7.04094483043912e-18,
		-0.049608536064624789,
		-0.00703975697979331],
		"max":[1.6483938407695213e-18,
		0.0,
		0.0419636145234108]
	},
	{
		"bufferView":50,
		"type":"VEC3",
		"componentType":5126,
		"count":373,
		"byteOffset":0,
		"min":[-4.032689947472609e-18,
		-0.02845693565905094,
		-0.004047546535730362],
		"max":[9.53962378243877e-19,
		0.0,
		0.023992575705051423]
	},
	{
		"bufferView":51,
		"type":"VEC3",
		"componentType":5126,
		"count":373,
		"byteOffset":0,
		"min":[-1.821866126328656e-18,
		-0.013091296888887883,
		-0.0018367767333984376],
		"max":[4.342229824881537e-19,
		0.0,
		0.010822716169059277]
	},
	{
		"bufferView":52,
		"type":"VEC3",
		"componentType":5126,
		"count":373,
		"byteOffset":0,
		"min":[-4.622767095653131e-19,
		-0.003715419676154852,
		-0.0004722595331259072],
		"max":[1.107241478990579e-19,
		0.0,
		0.0027387237641960384]
	},
	{
		"bufferView":53,
		"type":"VEC3",
		"componentType":5126,
		"count":373,
		"byteOffset":0,
		"min":[-1.3552526853146218e-22,
		-0.000540237408131361,
		-0.000007476806786144152],
		"max":[0.0,
		0.0,
		0.0]
	},
	{
		"bufferView":54,
		"type":"SCALAR",
		"componentType":5126,
		"count":52,
		"byteOffset":0,
		"min":[0.0],
		"max":[3.0]
	},
	{
		"bufferView":54,
		"type":"SCALAR",
		"componentType":5126,
		"count":2704,
		"byteOffset":208,
		"min":[0.0],
		"max":[1.0]
	}],
	"bufferViews":[{
		"buffer":0,
		"byteOffset":0,
		"byteLength":4356,
		"target":34963
	},
	{
		"buffer":0,
		"byteOffset":4356,
		"byteLength":11936,
		"target":34962,
		"byteStride":32
	},
	{
		"buffer":0,
		"byteOffset":16292,
		"byteLength":4476,
		"target":34962
	},
	{
		"buffer":0,
		"byteOffset":20768,
		"byteLength":4476,
		"target":34962
	},
	{
		"buffer":0,
		"byteOffset":25244,
		"byteLength":4476,
		"target":34962
	},
	{
		"buffer":0,
		"byteOffset":29720,
		"byteLength":4476,
		"target":34962
	},
	{
		"buffer":0,
		"byteOffset":34196,
		"byteLength":4476,
		"target":34962
	},
	{
		"buffer":0,
		"byteOffset":38672,
		"byteLength":4476,
		"target":34962
	},
	{
		"buffer":0,
		"byteOffset":43148,
		"byteLength":4476,
		"target":34962
	},
	{
		"buffer":0,
		"byteOffset":47624,
		"byteLength":4476,
		"target":34962
	},
	{
		"buffer":0,
		"byteOffset":52100,
		"byteLength":4476,
		"target":34962
	},
	{
		"buffer":0,
		"byteOffset":56576,
		"byteLength":4476,
		"target":34962
	},
	{
		"buffer":0,
		"byteOffset":61052,
		"byteLength":4476,
		"target":34962
	},
	{
		"buffer":0,
		"byteOffset":65528,
		"byteLength":4476,
		"target":34962
	},
	{
		"buffer":0,
		"byteOffset":70004,
		"byteLength":4476,
		"target":34962
	},
	{
		"buffer":0,
		"byteOffset":74480,
		"byteLength":4476,
		"target":34962
	},
	{
		"buffer":0,
		"byteOffset":78956,
		"byteLength":4476,
		"target":34962
	},
	{
		"buffer":0,
		"byteOffset":83432,
		"byteLength":4476,
		"target":34962
	},
	{
		"buffer":0,
		"byteOffset":87908,
		"byteLength":4476,
		"target":34962
	},
	{
		"buffer":0,
		"byteOffset":92384,
		"byteLength":4476,
		"target":34962
	},
	{
		"buffer":0,
		"byteOffset":96860,
		"byteLength":4476,
		"target":34962
	},
	{
		"buffer":0,
		"byteOffset":101336,
		"byteLength":4476,
		"target":34962
	},
	{
		"buffer":0,
		"byteOffset":105812,
		"byteLength":4476,
		"target":34962
	},
	{
		"buffer":0,
		"byteOffset":110288,
		"byteLength":4476,
		"target":34962
	},
	{
		"buffer":0,
		"byteOffset":114764,
		"byteLength":4476,
		"target":34962
	},
	{
		"buffer":0,
		"byteOffset":119240,
		"byteLength":4476,
		"target":34962
	},
	{
		"buffer":0,
		"byteOffset":123716,
		"byteLength":4476,
		"target":34962
	},
	{
		"buffer":0,
		"byteOffset":128192,
		"byteLength":4476,
		"target":34962
	},
	{
		"buffer":0,
		"byteOffset":132668,
		"byteLength":4476,
		"target":34962
	},
	{
		"buffer":0,
		"byteOffset":137144,
		"byteLength":4476,
		"target":34962
	},
	{
		"buffer":0,
		"byteOffset":141620,
		"byteLength":4476,
		"target":34962
	},
	{
		"buffer":0,
		"byteOffset":146096,
		"byteLength":4476,
		"target":34962
	},
	{
		"buffer":0,
		"byteOffset":150572,
		"byteLength":4476,
		"target":34962
	},
	{
		"buffer":0,
		"byteOffset":155048,
		"byteLength":4476,
		"target":34962
	},
	{
		"buffer":0,
		"byteOffset":159524,
		"byteLength":4476,
		"target":34962
	},
	{
		"buffer":0,
		"byteOffset":164000,
		"byteLength":4476,
		"target":34962
	},
	{
		"buffer":0,
		"byteOffset":168476,
		"byteLength":4476,
		"target":34962
	},
	{
		"buffer":0,
		"byteOffset":172952,
		"byteLength":4476,
		"target":34962
	},
	{
		"buffer":0,
		"byteOffset":177428,
		"byteLength":4476,
		"target":34962
	},
	{
		"buffer":0,
		"byteOffset":181904,
		"byteLength":4476,
		"target":34962
	},
	{
		"buffer":0,
		"byteOffset":186380,
		"byteLength":4476,
		"target":34962
	},
	{
		"buffer":0,
		"byteOffset":190856,
		"byteLength":4476,
		"target":34962
	},
	{
		"buffer":0,
		"byteOffset":195332,
		"byteLength":4476,
		"target":34962
	},
	{
		"buffer":0,
		"byteOffset":199808,
		"byteLength":4476,
		"target":34962
	},
	{
		"buffer":0,
		"byteOffset":204284,
		"byteLength":4476,
		"target":34962
	},
	{
		"buffer":0,
		"byteOffset":208760,
		"byteLength":4476,
		"target":34962
	},
	{
		"buffer":0,
		"byteOffset":213236,
		"byteLength":4476,
		"target":34962
	},
	{
		"buffer":0,
		"byteOffset":217712,
		"byteLength":4476,
		"target":34962
	},
	{
		"buffer":0,
		"byteOffset":222188,
		"byteLength":4476,
		"target":34962
	},
	{
		"buffer":0,
		"byteOffset":226664,
		"byteLength":4476,
		"target":34962
	},
	{
		"buffer":0,
		"byteOffset":231140,
		"byteLength":4476,
		"target":34962
	},
	{
		"buffer":0,
		"byteOffset":235616,
		"byteLength":4476,
		"target":34962
	},
	{
		"buffer":0,
		"byteOffset":240092,
		"byteLength":4476,
		"target":34962
	},
	{
		"buffer":0,
		"byteOffset":244568,
		"byteLength":4476,
		"target":34962
	},
	{
		"buffer":1,
		"byteOffset":0,
		"byteLength":11024
	}],
	"buffers":[{
		"uri":"data:application/octet-stream;base64,",
		"byteLength":249044
	},
	{
		"uri":"data:application/octet-stream;base64,",
		"byteLength":11024
	}],
	"materials":[{
		"pbrMetallicRoughness":{
			"baseColorFactor":[0.306,
			0.6777333333333332,
			0.85,
			1.0],
			"metallicFactor":0.0,
			"roughnessFactor":0.5
		},
		"emissiveFactor":[0.0,
		0.0,
		0.0],
		"alphaMode":"OPAQUE",
		"doubleSided":false,
		"name":"Mat"
	}],
	"animations":[{
		"samplers":[{
			"input":56,
			"interpolation":"LINEAR",
			"output":57
		}],
		"channels":[{
			"sampler":0,
			"target":{
				"node":0,
				"path":"weights"
			}
		}]
	}]
}