{
	"asset":{
		"copyright":"Barulin M.A.",
		"generator":"Khronos glTF Blender I/O v4.0.6",
		"version":"2.0"
	},
	"scene":0,
	"scenes":[
		{
			"name":"Scene",
			"nodes":[
				0
			]
		}
	],
	"nodes":[
		{
			"mesh":0,
			"name":"human_male_base03.001",
			"rotation":[
				0,
				0.7071068286895752,
				0,
				0.7071068286895752
			],
			"scale":[
				10,
				10,
				10
			],
			"translation":[
				0,
				-10.109999656677246,
				0
			]
		}
	],
	"materials":[
		{
			"alphaCutoff":0.5,
			"alphaMode":"MASK",
			"doubleSided":true,
			"emissiveFactor":[
				1,
				1,
				1
			],
			"emissiveTexture":{
				"index":0
			},
			"name":"\u043a\u043e\u0436\u0430.001",
			"pbrMetallicRoughness":{
				"baseColorFactor":[
					0,
					0,
					0,
					1
				]
			}
		},
		{
			"doubleSided":true,
			"emissiveFactor":[
				1,
				1,
				1
			],
			"emissiveTexture":{
				"index":1
			},
			"name":"\u043d\u043e\u0433\u0442\u0438",
			"pbrMetallicRoughness":{
				"baseColorFactor":[
					0,
					0,
					0,
					1
				]
			}
		}
	],
	"meshes":[
		{
			"name":"\u041c\u0435\u0448.001",
			"primitives":[
				{
					"attributes":{
						"POSITION":0,
						"NORMAL":1,
						"TEXCOORD_0":2
					},
					"indices":3,
					"material":0
				},
				{
					"attributes":{
						"POSITION":4,
						"NORMAL":5,
						"TEXCOORD_0":6
					},
					"indices":7,
					"material":1
				}
			]
		}
	],
	"textures":[
		{
			"sampler":0,
			"source":0
		},
		{
			"sampler":0,
			"source":1
		}
	],
	"images":[
		{
			"bufferView":4,
			"mimeType":"image/png",
			"name":"\u043d\u043e\u0433\u0442\u0438"
		},
		{
			"bufferView":9,
			"mimeType":"image/png",
			"name":"\u0411\u0435\u0437 \u0438\u043c\u0435\u043d\u04381"
		}
	],
	"accessors":[
		{
			"bufferView":0,
			"componentType":5126,
			"count":42901,
			"max":[
				0.29229843616485596,
				1.3834638595581055,
				0.31652745604515076
			],
			"min":[
				-0.28733885288238525,
				1.161273717880249,
				0.1973746418952942
			],
			"type":"VEC3"
		},
		{
			"bufferView":1,
			"componentType":5126,
			"count":42901,
			"type":"VEC3"
		},
		{
			"bufferView":2,
			"componentType":5126,
			"count":42901,
			"type":"VEC2"
		},
		{
			"bufferView":3,
			"componentType":5123,
			"count":245760,
			"type":"SCALAR"
		},
		{
			"bufferView":5,
			"componentType":5126,
			"count":2798,
			"max":[
				0.10475161671638489,
				1.3644393682479858,
				0.30408909916877747
			],
			"min":[
				-0.10027307271957397,
				1.161952257156372,
				0.22896605730056763
			],
			"type":"VEC3"
		},
		{
			"bufferView":6,
			"componentType":5126,
			"count":2798,
			"type":"VEC3"
		},
		{
			"bufferView":7,
			"componentType":5126,
			"count":2798,
			"type":"VEC2"
		},
		{
			"bufferView":8,
			"componentType":5123,
			"count":15360,
			"type":"SCALAR"
		}
	],
	"bufferViews":[
		{
			"buffer":0,
			"byteLength":514812,
			"byteOffset":0,
			"target":34962
		},
		{
			"buffer":0,
			"byteLength":514812,
			"byteOffset":514812,
			"target":34962
		},
		{
			"buffer":0,
			"byteLength":343208,
			"byteOffset":1029624,
			"target":34962
		},
		{
			"buffer":0,
			"byteLength":491520,
			"byteOffset":1372832,
			"target":34963
		},
		{
			"buffer":0,
			"byteLength":118612,
			"byteOffset":1864352
		},
		{
			"buffer":0,
			"byteLength":33576,
			"byteOffset":1982964,
			"target":34962
		},
		{
			"buffer":0,
			"byteLength":33576,
			"byteOffset":2016540,
			"target":34962
		},
		{
			"buffer":0,
			"byteLength":22384,
			"byteOffset":2050116,
			"target":34962
		},
		{
			"buffer":0,
			"byteLength":30720,
			"byteOffset":2072500,
			"target":34963
		},
		{
			"buffer":0,
			"byteLength":20719,
			"byteOffset":2103220
		}
	],
	"samplers":[
		{
			"magFilter":9729,
			"minFilter":9987
		}
	],
	"buffers":[
		{
			"byteLength":2123940,
			"uri":"data:application/octet-stream;base64,"
		}
	]
}
