{
	"asset":{
		"generator":"Khronos glTF Blender I/O v4.0.6",
		"version":"2.0"
	},
	"scene":0,
	"scenes":[
		{
			"name":"Scene",
			"nodes":[
				0
			]
		}
	],
	"nodes":[
		{
			"mesh":0,
			"name":"Ya_3"
		}
	],
	"meshes":[
		{
			"name":"Ya_3",
			"primitives":[
				{
					"attributes":{
						"POSITION":0,
						"NORMAL":1
					},
					"indices":2
				}
			]
		}
	],
	"accessors":[
		{
			"bufferView":0,
			"componentType":5126,
			"count":12074,
			"max":[
				694.6468505859375,
				88.58829498291016,
				270.775390625
			],
			"min":[
				-147.38388061523438,
				0,
				-316.8160400390625
			],
			"type":"VEC3"
		},
		{
			"bufferView":1,
			"componentType":5126,
			"count":12074,
			"type":"VEC3"
		},
		{
			"bufferView":2,
			"componentType":5123,
			"count":45000,
			"type":"SCALAR"
		}
	],
	"bufferViews":[
		{
			"buffer":0,
			"byteLength":144888,
			"byteOffset":0,
			"target":34962
		},
		{
			"buffer":0,
			"byteLength":144888,
			"byteOffset":144888,
			"target":34962
		},
		{
			"buffer":0,
			"byteLength":90000,
			"byteOffset":289776,
			"target":34963
		}
	],
	"buffers":[
		{
			"byteLength":379776,
			"uri":"data:application/octet-stream;base64,"
		}
	]
}
